<svg xmlns="http://www.w3.org/2000/svg" width="48" height="48" viewBox="0 0 48 48">
    <g fill="none" fill-rule="evenodd">
        <path fill="#FFF" d="M38.445 4.704c.117.417.094.874-.065 1.306-.803 2.901-3.97 6.635-8.66 11.326-3.792 3.792-8.815 8.367-12.493 12.693l.148.37 1.368 8.17.08.644c.09.738-.449 1.488-1.205 1.674-.637.156-1.243-.137-1.461-.707l-1.313-2.59-3.47-6.867-.05-.05-6.986-3.556-2.59-1.313c-.57-.219-.863-.824-.706-1.461.186-.756.935-1.295 1.674-1.204l.643.079 8.157 1.45L24.533 11.65c4.665-4.665 8.437-7.388 11.318-8.17 1.127-.415 2.288.132 2.594 1.224z" transform="translate(4.587 3.331)"/>
        <path fill="#FFF288" d="M20.042 27.05c-.486.436-1.478 1.361-2.975 2.776l.229.583 1.368 8.17.079.644c.09.738-.448 1.488-1.204 1.674-.637.157-1.243-.136-1.462-.707l-1.313-2.59-3.47-6.867-.049-.05-6.987-3.556-2.589-1.313c-.57-.218-.863-.824-.706-1.461.186-.756.935-1.295 1.674-1.204l.643.079 8.755 1.556.032.07 7.975 2.195z" transform="translate(4.587 3.331)"/>
        <path fill="#FFF" d="M27.745 7.958L6.753 6.273l-.781-.029c-.996-.036-1.832.742-1.868 1.737-.03.837.52 1.585 1.33 1.805l3.753 1.408 11.021 3.662M33.063 14.764c.81 2.672 1.41 8.997 1.797 18.972l.071 1.926c.037 1.003-.746 1.847-1.749 1.884-.79.029-1.5-.454-1.771-1.184l-.048-.15-1.419-3.724-3.69-10.937.394-.648c3.375-5.485 5.513-7.531 6.415-6.14z" transform="translate(4.587 3.331)"/>
        <path stroke="#1B182B" stroke-linecap="round" stroke-width="2.143" d="M27.539 8.376L6.104 6.382l-.793-.03c-1.003-.036-1.842.742-1.873 1.737-.026.837.532 1.585 1.347 1.806l3.753 1.408 6.635 2.269M33.796 19.705c.237 3.305.62 8.382 1.148 15.231l.029.787c.036.995-.747 1.827-1.75 1.858-.843.026-1.597-.527-1.82-1.336l-1.419-3.725-3.748-10.895" transform="translate(4.587 3.331)"/>
        <path stroke="#1B182B" stroke-linecap="round" stroke-linejoin="round" stroke-width="2.143" d="M17.16 29.47l1.496 8.773.08.643c.09.739-.448 1.488-1.204 1.674-.637.157-1.243-.136-1.462-.707l-1.313-2.589-3.47-6.867M11.24 30.282l-7.01-3.52-2.593-1.299c-.572-.215-.864-.818-.704-1.453.19-.754.944-1.294 1.685-1.206l.645.077 8.84 1.63M12.193 24.492c1.57-2.143 3.407-4.366 5.253-6.212l2.731-2.731 3.961-3.961c1.08-1.08 2.114-2.06 3.1-2.937 3.363-2.988 6.177-4.796 8.434-5.43 1.437-.507 2.955 1.205 2.518 2.517-.437 1.525-1.401 3.3-2.898 5.32m-2.548 3.167c-.833.946-1.991 2.08-3.014 3.102l-6.593 6.593c-1.767 1.766-3.88 3.843-5.871 5.44" transform="translate(4.587 3.331)"/>
    </g>
</svg>
